<?xml version="1.0" encoding="utf-8"?>
<!-- Generator: Adobe Illustrator 24.3.0, SVG Export Plug-In . SVG Version: 6.00 Build 0)  -->
<svg version="1.1" id="Ebene_1" xmlns="http://www.w3.org/2000/svg" xmlns:xlink="http://www.w3.org/1999/xlink" x="0px" y="0px"
	 width="987.3px" height="390.2px" viewBox="0 0 987.3 390.2" style="enable-background:new 0 0 987.3 390.2;" xml:space="preserve"
	>
<style type="text/css">
	.st0{fill:#020202;}
</style>
<g>
	<path class="st0" d="M407.7,193.9c-0.2,0-0.5,0-0.7-0.1c-2-0.4-3.4-2.1-3.4-4.1V50.9c0-2.3,1.9-4.1,4.1-4.1s4.1,1.9,4.1,4.1v116.3
		L474.1,2.7c0.6-1.6,2.1-2.7,3.9-2.7l0,0c1.7,0,3.3,1.1,3.9,2.8l35.5,100.6h62.3c1.4,0,2.7,0.7,3.5,1.9s0.9,2.7,0.3,3.9L547.1,191
		c-0.7,1.5-2.3,2.5-3.9,2.4c-1.7-0.1-3.2-1.2-3.7-2.8l-27.9-79.1h-31.3c-2.3,0-4.1-1.9-4.1-4.1s1.9-4.1,4.1-4.1h28.3l-30.7-87.2
		l-66.3,175.1C411,192.9,409.4,193.9,407.7,193.9z M520.3,111.7l23.4,66.5l29.6-66.5H520.3z"/>
</g>
<g>
	<path class="st0" d="M4.1,389.3c-1.3,0-2.3-0.4-3-1.1s-1.1-1.7-1.1-3v-90.1c0-1.3,0.4-2.3,1.1-3s1.7-1.1,3-1.1
		c1.2,0,2.2,0.4,2.9,1.1c0.7,0.7,1.1,1.7,1.1,3v90.1c0,1.3-0.4,2.3-1.1,3C6.3,388.9,5.3,389.3,4.1,389.3z"/>
	<path class="st0" d="M63.3,389.3c-2.7,0-4-1.3-4-4v-90c0-2.7,1.3-4,4-4c1.4,0,2.8,0.8,4.1,2.4l64.4,82.8H130v-81.1c0-2.7,1.3-4,4-4
		c2.6,0,4,1.3,4,4v90c0,2.7-1.3,4-4,4c-1.5,0-2.8-0.8-4.1-2.4l-64.5-82.8h1.8v81.1C67.3,387.9,66,389.3,63.3,389.3z"/>
	<path class="st0" d="M218.3,389.4c-1.2,0-2.2-0.4-2.9-1.1c-0.7-0.7-1.1-1.7-1.1-2.9v-86.3H182c-1.2,0-2.2-0.4-2.9-1.1
		c-0.7-0.7-1.1-1.7-1.1-2.9s0.4-2.2,1.1-2.9c0.7-0.7,1.7-1.1,2.9-1.1h72.7c1.2,0,2.2,0.4,2.9,1.1c0.7,0.7,1.1,1.7,1.1,2.9
		c0,1.2-0.4,2.2-1.1,2.9s-1.7,1.1-2.9,1.1h-32.4v86.3c0,1.2-0.4,2.1-1.1,2.9C220.4,389,219.5,389.4,218.3,389.4z"/>
	<path class="st0" d="M302.5,389.3c-2.7,0-4-1.3-4-4v-90c0-2.7,1.3-4,4-4h57c2.7,0,4,1.3,4,4s-1.3,4-4,4h-53v36.4h35.1
		c2.7,0,4,1.3,4,4s-1.3,4-4,4h-35.1v37.7h53c2.7,0,4,1.3,4,4s-1.3,4-4,4h-57V389.3z"/>
	<path class="st0" d="M473,389.5c-1.1,0.6-2.1,0.8-3.1,0.6c-0.9-0.2-1.7-0.8-2.4-1.9l-25-39.7h-27.9v36.7c0,2.7-1.3,4-4,4
		s-4-1.3-4-4v-90c0-2.7,1.3-4,4-4h35.6c8.7,0,15.2,2.2,19.7,6.7c4.4,4.5,6.7,11,6.7,19.7v4.6c0,7.7-1.7,13.7-5.2,18
		c-3.5,4.4-8.7,7-15.5,8l22.4,35.8C475.7,386.3,475.3,388.1,473,389.5z M414.6,340.5h31.6c6.4,0,11-1.5,14-4.4
		c2.9-2.9,4.4-7.6,4.4-14v-4.6c0-6.4-1.5-11.1-4.4-14c-2.9-2.9-7.6-4.4-14-4.4h-31.6V340.5z"/>
	<path class="st0" d="M512,388.9c-2.4-1.1-3.2-2.8-2.2-5.3l37.7-89.2c0.8-2.1,2.3-3.1,4.5-3.1h0.5c2.1,0.1,3.5,1.1,4.4,3.1
		l37.7,89.2c1,2.5,0.3,4.3-2.1,5.3c-2.5,1-4.2,0.3-5.2-2.1l-10.1-23.9h-49.8l-10.1,23.9C516.2,389.2,514.5,389.9,512,388.9z
		 M530.6,354.8h43.2l-21.6-51L530.6,354.8z"/>
	<path class="st0" d="M640,389.3c-2.7,0-4-1.3-4-4v-90c0-2.7,1.3-4,4-4c2.6,0,4,1.3,4,4V339l45.2-46.3c1.8-1.9,3.7-1.9,5.6-0.1
		c2,1.8,2,3.7,0.2,5.7l-34.1,34.9l40.1,49.7c1.7,2.1,1.5,4-0.5,5.6c-2.1,1.7-4,1.5-5.6-0.5l-39.5-49.1l-11.3,11.5v34.8
		C644,387.9,642.7,389.3,640,389.3z"/>
	<path class="st0" d="M771.6,389.4c-1.2,0-2.2-0.4-2.9-1.1s-1.1-1.7-1.1-2.9v-86.3h-32.3c-1.2,0-2.2-0.4-2.9-1.1s-1.1-1.7-1.1-2.9
		s0.4-2.2,1.1-2.9c0.7-0.7,1.7-1.1,2.9-1.1H808c1.2,0,2.2,0.4,2.9,1.1s1.1,1.7,1.1,2.9c0,1.2-0.4,2.2-1.1,2.9
		c-0.7,0.7-1.7,1.1-2.9,1.1h-32.4v86.3c0,1.2-0.4,2.1-1.1,2.9C773.7,389,772.8,389.4,771.6,389.4z"/>
	<path class="st0" d="M855.8,389.3c-1.3,0-2.3-0.4-3-1.1s-1.1-1.7-1.1-3v-90.1c0-1.3,0.4-2.3,1.1-3c0.7-0.7,1.7-1.1,3-1.1
		c1.2,0,2.2,0.4,2.9,1.1s1.1,1.7,1.1,3v90.1c0,1.3-0.4,2.3-1.1,3C858,388.9,857,389.3,855.8,389.3z"/>
	<path class="st0" d="M942.5,389.3c-1.7,0-3-0.9-3.7-2.7L899.3,297c-0.7-1.5-0.6-2.7,0-3.7c0.7-1,1.6-1.6,2.9-1.8
		c2.1-0.5,3.5,0.3,4.3,2.3l38,86.3h-2.8l37.8-86.3c0.8-2,2.3-2.8,4.4-2.3c1.3,0.3,2.3,0.9,2.9,1.8c0.6,1,0.6,2.2,0,3.7l-39.6,89.6
		c-0.8,1.8-2.1,2.7-3.9,2.7L942.5,389.3L942.5,389.3z"/>
</g>
</svg>
